<svg id="icone" xmlns="http://www.w3.org/2000/svg" xmlns:xlink="http://www.w3.org/1999/xlink" width="218.428" height="207.404" viewBox="0 0 218.428 207.404">
  <defs>
    <filter id="Caminho_203" x="0" y="0" width="218.428" height="207.404" filterUnits="userSpaceOnUse">
      <feOffset dx="3" dy="4" input="SourceAlpha"/>
      <feGaussianBlur stdDeviation="1" result="blur"/>
      <feFlood flood-opacity="0.161"/>
      <feComposite operator="in" in2="blur"/>
      <feComposite in="SourceGraphic"/>
    </filter>
  </defs>
  <g id="Elipse_236" data-name="Elipse 236">
    <path id="Caminho_201" data-name="Caminho 201" d="M103.7,192.883a106.057,106.057,0,0,1-39.487-7.518A101.441,101.441,0,0,1,32.037,164.9a94.774,94.774,0,0,1-21.629-30.256,90.29,90.29,0,0,1,0-73.907A94.774,94.774,0,0,1,32.037,30.483a101.439,101.439,0,0,1,32.18-20.465,107.461,107.461,0,0,1,78.973,0,101.439,101.439,0,0,1,32.18,20.465A94.774,94.774,0,0,1,197,60.738a90.291,90.291,0,0,1,0,73.907A94.774,94.774,0,0,1,175.37,164.9a101.441,101.441,0,0,1-32.18,20.465A106.057,106.057,0,0,1,103.7,192.883Z" transform="translate(2.51 2.51)" fill="#4dcb8c"/>
    <path id="Caminho_202" data-name="Caminho 202" d="M106.214,10.02a101.066,101.066,0,0,0-37.63,7.161,96.454,96.454,0,0,0-30.6,19.456A89.793,89.793,0,0,0,17.49,65.3a85.28,85.28,0,0,0,0,69.807,89.793,89.793,0,0,0,20.5,28.661,96.454,96.454,0,0,0,30.6,19.456,102.451,102.451,0,0,0,75.259,0,96.454,96.454,0,0,0,30.6-19.456,89.8,89.8,0,0,0,20.5-28.661,85.281,85.281,0,0,0,0-69.807,89.794,89.794,0,0,0-20.5-28.661,96.454,96.454,0,0,0-30.6-19.456,101.066,101.066,0,0,0-37.63-7.161m0-10.02c58.66,0,106.214,44.862,106.214,100.2S164.874,200.4,106.214,200.4,0,155.542,0,100.2,47.554,0,106.214,0Z" fill="#fff"/>
    <g transform="matrix(1, 0, 0, 1, 0, 0)" filter="url(#Caminho_203)">
      <path id="Caminho_203-2" data-name="Caminho 203" d="M106.214,10.02a101.066,101.066,0,0,0-37.63,7.161,96.454,96.454,0,0,0-30.6,19.456A89.793,89.793,0,0,0,17.49,65.3a85.28,85.28,0,0,0,0,69.807,89.793,89.793,0,0,0,20.5,28.661,96.454,96.454,0,0,0,30.6,19.456,102.451,102.451,0,0,0,75.259,0,96.454,96.454,0,0,0,30.6-19.456,89.8,89.8,0,0,0,20.5-28.661,85.281,85.281,0,0,0,0-69.807,89.794,89.794,0,0,0-20.5-28.661,96.454,96.454,0,0,0-30.6-19.456,101.066,101.066,0,0,0-37.63-7.161m0-10.02c58.66,0,106.214,44.862,106.214,100.2S164.874,200.4,106.214,200.4,0,155.542,0,100.2,47.554,0,106.214,0Z" fill="#fff"/>
    </g>
  </g>
  <path id="Subtração_1" data-name="Subtração 1" d="M41.484,70.857h0L0,0H18.437L41.484,38.858,64.52,0H82.957Z" transform="translate(121.032 133.405) rotate(180)" fill="#fff"/>
  <path id="Subtração_2" data-name="Subtração 2" d="M23.812,93.324H0L53.576,0,107.15,93.324H83.34L53.576,42.149Z" transform="translate(65.728 40.081)" fill="#fff"/>
</svg>
