<svg xmlns="http://www.w3.org/2000/svg" xmlns:xlink="http://www.w3.org/1999/xlink" width="217.928" height="211.904" viewBox="0 0 217.928 211.904">
  <defs>
    <filter id="Caminho_203" x="0" y="0" width="217.928" height="211.904" filterUnits="userSpaceOnUse">
      <feOffset dx="4" dy="10" input="SourceAlpha"/>
      <feGaussianBlur stdDeviation="0.5" result="blur"/>
      <feFlood flood-opacity="0.161"/>
      <feComposite operator="in" in2="blur"/>
      <feComposite in="SourceGraphic"/>
    </filter>
  </defs>
  <g id="Grupo_25" data-name="Grupo 25" transform="translate(-1504 518)">
    <g id="icone" transform="translate(1504 -518)">
      <g id="Elipse_236" data-name="Elipse 236">
        <path id="Caminho_202" data-name="Caminho 202" d="M106.214,10.02a101.066,101.066,0,0,0-37.63,7.161,96.454,96.454,0,0,0-30.6,19.456A89.793,89.793,0,0,0,17.49,65.3a85.28,85.28,0,0,0,0,69.807,89.793,89.793,0,0,0,20.5,28.661,96.454,96.454,0,0,0,30.6,19.456,102.451,102.451,0,0,0,75.259,0,96.454,96.454,0,0,0,30.6-19.456,89.8,89.8,0,0,0,20.5-28.661,85.281,85.281,0,0,0,0-69.807,89.794,89.794,0,0,0-20.5-28.661,96.454,96.454,0,0,0-30.6-19.456,101.066,101.066,0,0,0-37.63-7.161m0-10.02c58.66,0,106.214,44.862,106.214,100.2S164.874,200.4,106.214,200.4,0,155.542,0,100.2,47.554,0,106.214,0Z" fill="#fff"/>
        <g transform="matrix(1, 0, 0, 1, 0, 0)" filter="url(#Caminho_203)">
          <path id="Caminho_203-2" data-name="Caminho 203" d="M106.214,10.02a101.066,101.066,0,0,0-37.63,7.161,96.454,96.454,0,0,0-30.6,19.456A89.793,89.793,0,0,0,17.49,65.3a85.28,85.28,0,0,0,0,69.807,89.793,89.793,0,0,0,20.5,28.661,96.454,96.454,0,0,0,30.6,19.456,102.451,102.451,0,0,0,75.259,0,96.454,96.454,0,0,0,30.6-19.456,89.8,89.8,0,0,0,20.5-28.661,85.281,85.281,0,0,0,0-69.807,89.794,89.794,0,0,0-20.5-28.661,96.454,96.454,0,0,0-30.6-19.456,101.066,101.066,0,0,0-37.63-7.161m0-10.02c58.66,0,106.214,44.862,106.214,100.2S164.874,200.4,106.214,200.4,0,155.542,0,100.2,47.554,0,106.214,0Z" fill="#fff"/>
        </g>
        <path id="Caminho_201" data-name="Caminho 201" d="M98.814,182.446a101.542,101.542,0,0,1-37.578-7.105A96.627,96.627,0,0,1,30.61,156a89.593,89.593,0,0,1-20.584-28.6,84.809,84.809,0,0,1,0-69.855,89.593,89.593,0,0,1,20.584-28.6A96.625,96.625,0,0,1,61.235,9.605a102.923,102.923,0,0,1,75.157,0,96.625,96.625,0,0,1,30.625,19.343,89.594,89.594,0,0,1,20.584,28.6,84.809,84.809,0,0,1,0,69.855A89.594,89.594,0,0,1,167.017,156a96.627,96.627,0,0,1-30.625,19.343A101.542,101.542,0,0,1,98.814,182.446Z" transform="matrix(1, -0.017, 0.017, 1, 5.897, 9.377)" fill="#4dcb8c"/>
      </g>
    </g>
    <g id="Grupo_24" data-name="Grupo 24" transform="translate(181 101)">
      <path id="Subtração_1" data-name="Subtração 1" d="M43.311,73.978h0L0,0H19.249L43.311,40.57,67.362,0H86.611Z" transform="translate(1445.686 -483.485) rotate(180)" fill="#fff"/>
      <path id="Subtração_2" data-name="Subtração 2" d="M24.861,97.435H0L55.936,0,111.87,97.435H87.011L55.936,44.005Z" transform="translate(1387.947 -580.919)" fill="#fff"/>
    </g>
  </g>
</svg>
